<?xml version="1.0" encoding="UTF-8" standalone="no" ?>
<!DOCTYPE svg PUBLIC "-//W3C//DTD SVG 1.1//EN" "http://www.w3.org/Graphics/SVG/1.1/DTD/svg11.dtd">
<svg xmlns="http://www.w3.org/2000/svg" xmlns:xlink="http://www.w3.org/1999/xlink" version="1.1" width="30" height="30" viewBox="0 0 30 30" xml:space="preserve">
<desc>Created with Fabric.js 4.6.0</desc>
<defs>
</defs>
<g transform="matrix(1 0 0 1 15 15)" id="KEQ_uOukIDArK52XurJmM"  >
<path style="stroke: rgb(31,78,120); stroke-width: 1; stroke-dasharray: none; stroke-linecap: butt; stroke-dashoffset: 0; stroke-linejoin: miter; stroke-miterlimit: 4; fill: rgb(31,78,120); fill-rule: nonzero; opacity: 1;" vector-effect="non-scaling-stroke"  transform=" translate(-15, -15)" d="M 0 6.36396 C 0 2.8492399999999996 2.84924 0 6.36396 0 L 23.636039999999998 0 L 23.636039999999998 0 C 27.15076 0 29.999999999999996 2.84924 29.999999999999996 6.36396 L 29.999999999999996 23.636039999999998 L 29.999999999999996 23.636039999999998 C 29.999999999999996 27.15076 27.15076 29.999999999999996 23.636039999999998 29.999999999999996 L 6.363959999999999 29.999999999999996 L 6.363959999999999 29.999999999999996 C 2.8492399999999987 29.999999999999996 -8.881784197001252e-16 27.15076 -8.881784197001252e-16 23.636039999999998 z" stroke-linecap="round" />
</g>
<g transform="matrix(1 0 0 1 15 7.61)" id="ZsMiHWJDjx2WTZ9U_wFWf"  >
<path style="stroke: rgb(228,187,108); stroke-width: 0; stroke-dasharray: none; stroke-linecap: butt; stroke-dashoffset: 0; stroke-linejoin: miter; stroke-miterlimit: 4; fill: rgb(255,255,255); fill-rule: nonzero; opacity: 1;" vector-effect="non-scaling-stroke"  transform=" translate(-9, -1.5)" d="M 0 0 L 18 0 L 18 3 L 0 3 z" stroke-linecap="round" />
</g>
<g transform="matrix(1 0 0 1 15 14.5)" id="IEDq-Zn_8AmufT9OFg53r"  >
<path style="stroke: rgb(228,187,108); stroke-width: 0; stroke-dasharray: none; stroke-linecap: butt; stroke-dashoffset: 0; stroke-linejoin: miter; stroke-miterlimit: 4; fill: rgb(255,255,255); fill-rule: nonzero; opacity: 1;" vector-effect="non-scaling-stroke"  transform=" translate(-9, -1.5)" d="M 0 0 L 18 0 L 18 3 L 0 3 z" stroke-linecap="round" />
</g>
<g transform="matrix(1 0 0 1 15 21.61)" id="O3O7lpUxrBu3rhJTGFttX"  >
<path style="stroke: rgb(228,187,108); stroke-width: 0; stroke-dasharray: none; stroke-linecap: butt; stroke-dashoffset: 0; stroke-linejoin: miter; stroke-miterlimit: 4; fill: rgb(255,255,255); fill-rule: nonzero; opacity: 1;" vector-effect="non-scaling-stroke"  transform=" translate(-9, -1.5)" d="M 0 0 L 18 0 L 18 3 L 0 3 z" stroke-linecap="round" />
</g>
</svg>